<?xml version="1.0" encoding="iso-8859-1"?>
<!-- Uploaded to: SVG Repo, www.svgrepo.com, Generator: SVG Repo Mixer Tools -->
<svg version="1.1" id="Layer_1" xmlns="http://www.w3.org/2000/svg" xmlns:xlink="http://www.w3.org/1999/xlink" 
	 viewBox="0 0 390.206 390.206" xml:space="preserve">
<g>
	<path style="fill:#FFC10D;" d="M276.058,299.184C276.058,299.701,275.541,299.701,276.058,299.184L276.058,299.184z"/>
	<path style="fill:#FFC10D;" d="M276.058,212.428v86.756h-87.273l0.517-86.691h32.517V230.4c0,5.947,4.848,10.861,10.861,10.861
		c5.947,0,10.861-4.848,10.861-10.861v-17.907h32.517V212.428z"/>
	<path style="fill:#FFC10D;" d="M193.181,43.895v86.174c0,0,0,0.517-0.517,0.517l-86.691-0.517l0.517-86.691l32.517,0.517v17.907
		c0,5.947,4.848,10.861,10.861,10.861c5.947,0,10.861-4.848,10.861-10.861V43.895C160.729,43.895,193.181,43.895,193.181,43.895z"/>
</g>
<g>
	<rect x="21.868" y="21.657" style="fill:#56ACE0;" width="16.808" height="346.828"/>
	<rect x="351.953" y="21.657" style="fill:#56ACE0;" width="16.808" height="346.828"/>
</g>
<path style="fill:#194F82;" d="M379.557,0h-38.465c-5.948,0-10.861,4.848-10.861,10.861v119.79H215.355c0,0,0,0,0-0.517V43.895
	c0-11.895-9.762-22.238-22.238-22.238h-86.174c-11.895,0-22.238,9.762-22.238,22.238v86.174c0,0,0,0,0,0.517H60.333V10.861
	C60.333,4.913,55.484,0,49.472,0h-38.4C5.125,0,0.212,4.848,0.212,10.861v368.485c0,5.947,4.848,10.861,10.861,10.861h38.465
	c5.947,0,10.861-4.848,10.861-10.861v-57.988h269.382v57.988c0,5.947,4.848,10.861,10.861,10.861h38.465
	c5.948,0,10.861-4.848,10.861-10.861V10.861C390.418,4.848,385.569,0,379.557,0z M38.676,368.549H21.868V21.657h16.808V368.549z
	 M106.426,43.895h32.517v17.907c0,5.947,4.848,10.861,10.861,10.861c6.012,0,10.861-4.848,10.861-10.861V43.895h32.517v86.174
	c0,0,0,0.517-0.517,0.517l-86.691-0.517L106.426,43.895z M232.68,241.196c5.947,0,10.861-4.848,10.861-10.861v-17.907h32.517v86.756
	h-87.273l0.517-86.691h32.517V230.4C221.884,236.283,226.733,241.196,232.68,241.196z M276.058,299.184
	C276.058,299.701,275.541,299.701,276.058,299.184L276.058,299.184z M297.715,299.701c0,0,0,0,0-0.517V213.01
	c0-11.895-9.762-22.238-22.238-22.238h-86.691c-11.895,0-22.238,9.762-22.238,22.238v86.174c0,0,0,0,0,0.517H60.333V152.307h269.382
	v147.394H297.715z M368.761,368.549h-16.808V21.657h16.808V368.549z"/>
</svg>